<svg className='-ml-8' width="312"  viewBox="0 0 312 82" fill="none" xmlns="http://www.w3.org/2000/svg">
<path d="M61.4219 12.8135C61.1354 12.9925 60.8311 13.0999 60.5088 13.1357C60.1865 13.1715 59.8464 13.2253 59.4883 13.2969C59.166 13.3327 58.8617 13.4043 58.5752 13.5117C58.2887 13.6191 58.0739 13.8161 57.9307 14.1025C57.5726 13.7445 57.1787 13.4401 56.749 13.1895C56.3193 12.9388 55.8896 12.6702 55.46 12.3838C55.1019 12.4912 54.7438 12.6344 54.3857 12.8135C54.0277 12.9925 53.6696 13.082 53.3115 13.082C53.0609 13.082 52.8102 12.9925 52.5596 12.8135C52.2731 13.0283 51.9329 13.2074 51.5391 13.3506C51.181 13.458 50.7871 13.5654 50.3574 13.6729C49.9635 13.7803 49.5876 13.9235 49.2295 14.1025C48.9072 14.2816 48.6745 14.5501 48.5312 14.9082C48.4596 14.7292 48.2806 14.6755 47.9941 14.7471C47.7435 14.8187 47.6003 14.7292 47.5645 14.4785C46.4186 14.8724 45.2549 15.2126 44.0732 15.499C42.8916 15.7855 41.71 16.0898 40.5283 16.4121C39.3467 16.7344 38.1829 17.0924 37.0371 17.4863C35.8913 17.8802 34.7812 18.3636 33.707 18.9365C33.6712 18.9723 33.6533 19.026 33.6533 19.0977C33.6533 19.4557 33.707 19.7959 33.8145 20.1182C33.9219 20.4404 34.0114 20.7448 34.083 21.0312C33.4385 23.2155 33.0088 25.4355 32.7939 27.6914C32.5791 29.9473 32.2926 32.1673 31.9346 34.3516V34.5664C31.9346 34.7454 32.0062 34.8887 32.1494 34.9961C32.2926 35.0677 32.3643 35.2109 32.3643 35.4258L32.3105 35.5332C32.1315 35.6406 32.0062 35.8018 31.9346 36.0166C31.863 36.1956 31.8271 36.3926 31.8271 36.6074C31.8271 36.7507 31.863 36.9655 31.9346 37.252C31.3258 39.293 30.9141 41.3698 30.6992 43.4824C30.5202 45.5951 30.2874 47.7077 30.001 49.8203L29.5176 53.3652C29.446 53.5801 29.3743 53.7949 29.3027 54.0098C29.2669 54.1888 29.249 54.3857 29.249 54.6006C29.249 55.7464 29.3206 56.8743 29.4639 57.9844C29.6429 59.0586 29.6966 60.1686 29.625 61.3145C29.9473 61.8158 30.1084 62.2992 30.1084 62.7646C30.1084 62.9437 30.0905 63.1227 30.0547 63.3018C30.0547 63.4808 30.0368 63.6598 30.001 63.8389C30.4665 64.3044 31.0036 64.6266 31.6123 64.8057C32.2568 65.0205 32.8298 65.3428 33.3311 65.7725V65.9873C33.3311 66.3454 33.2773 66.6855 33.1699 67.0078C33.0625 67.3659 32.973 67.724 32.9014 68.082C32.8298 68.3685 32.7402 68.7803 32.6328 69.3174C32.5612 69.8545 32.4538 70.2126 32.3105 70.3916C32.1315 70.6423 31.863 70.8571 31.5049 71.0361C31.1826 71.251 30.8604 71.3584 30.5381 71.3584C30.4307 71.3584 30.2695 71.3047 30.0547 71.1973C29.8757 71.0898 29.7324 71.0003 29.625 70.9287C29.446 70.9287 29.2132 71.0182 28.9268 71.1973C28.6403 71.3763 28.3538 71.4658 28.0674 71.4658C27.9242 71.4658 27.7988 71.4479 27.6914 71.4121C27.584 71.4121 27.4587 71.3763 27.3154 71.3047C27.1722 70.9466 26.9574 70.6243 26.6709 70.3379C26.4202 70.0872 26.1159 69.8366 25.7578 69.5859C25.7936 69.0846 25.7041 68.7087 25.4893 68.458C25.2744 68.2074 25.0596 67.8851 24.8447 67.4912C24.7731 66.9899 24.7015 66.417 24.6299 65.7725C24.5941 65.1279 24.3255 64.6624 23.8242 64.376C24.0033 64.1253 24.0928 63.7852 24.0928 63.3555C24.0928 63.1764 24.057 62.9795 23.9854 62.7646C23.9495 62.5498 23.8421 62.3887 23.6631 62.2812V62.1738C23.6273 61.9948 23.681 61.8695 23.8242 61.7979C24.0033 61.6904 24.0928 61.5472 24.0928 61.3682V61.1533C23.8421 60.0075 23.7168 58.8079 23.7168 57.5547C23.7168 56.373 23.7526 55.2093 23.8242 54.0635C23.8958 52.8818 23.8958 51.7002 23.8242 50.5186C24.0391 50.3395 24.2002 50.0531 24.3076 49.6592C24.4508 49.2653 24.5583 48.8356 24.6299 48.3701C24.7015 47.9046 24.7373 47.457 24.7373 47.0273C24.7731 46.5618 24.8089 46.1859 24.8447 45.8994C25.0238 43.8584 25.3102 41.8532 25.7041 39.8838C26.098 37.8786 26.3307 35.8376 26.4023 33.7607C26.5814 33.4743 26.6888 33.0983 26.7246 32.6328C26.7604 32.1673 26.7783 31.6839 26.7783 31.1826C26.7783 30.6455 26.8141 30.1263 26.8857 29.625C26.9574 29.1237 27.1006 28.694 27.3154 28.3359C27.3154 27.3333 27.4049 26.3307 27.584 25.3281C27.763 24.2897 27.8525 23.2513 27.8525 22.2129C27.8525 21.7116 27.7988 21.1924 27.6914 20.6553C27.3333 20.512 27.0111 20.4404 26.7246 20.4404C26.3307 20.4404 25.9189 20.5299 25.4893 20.709C25.0954 20.8522 24.8089 21.085 24.6299 21.4072C23.8421 21.443 23.0723 21.5684 22.3203 21.7832C21.5684 21.998 20.8164 22.1055 20.0645 22.1055H19.5273C19.3841 22.1055 19.223 22.0876 19.0439 22.0518C18.7933 22.1592 18.5247 22.2487 18.2383 22.3203C17.9876 22.3919 17.8802 22.6068 17.916 22.9648C16.806 23.0723 15.7139 23.305 14.6396 23.6631C13.6012 24.0212 12.5628 24.415 11.5244 24.8447C10.486 25.2386 9.44759 25.6146 8.40918 25.9727C7.33496 26.3307 6.24284 26.5635 5.13281 26.6709C4.73893 26.8499 4.48828 27.2259 4.38086 27.7988C3.5931 27.7272 2.93066 27.5303 2.39355 27.208C1.85645 26.8857 1.22982 26.5814 0.513672 26.2949C0.298828 25.543 0.191406 24.8268 0.191406 24.1465C0.191406 23.2513 0.370443 22.3919 0.728516 21.5684C1.08659 20.7448 1.65951 20.1361 2.44727 19.7422C2.6263 19.778 2.78743 19.8138 2.93066 19.8496C3.07389 19.8496 3.23503 19.8496 3.41406 19.8496C3.98698 19.8496 4.5599 19.7422 5.13281 19.5273C5.70573 19.3125 6.29655 19.2051 6.90527 19.2051C7.08431 19.2051 7.28125 19.2588 7.49609 19.3662C7.74674 19.223 8.06901 19.1156 8.46289 19.0439C8.82096 18.9365 9.16113 18.847 9.4834 18.7754C9.84147 18.668 10.1637 18.5247 10.4502 18.3457C10.7367 18.1667 10.9157 17.916 10.9873 17.5938C11.1663 17.737 11.3633 17.8265 11.5781 17.8623C11.793 17.8981 12.0078 17.916 12.2227 17.916C12.6882 17.916 13.1715 17.8265 13.6729 17.6475C14.1742 17.4684 14.568 17.182 14.8545 16.7881C15.1051 17.0745 15.4632 17.2178 15.9287 17.2178C16.43 17.2178 16.9134 17.0924 17.3789 16.8418C17.8802 16.5553 18.3636 16.4121 18.8291 16.4121C19.1872 16.4121 19.4557 16.5374 19.6348 16.7881C20.0286 16.4658 20.4941 16.2152 21.0312 16.0361C21.5684 15.8571 22.1055 15.696 22.6426 15.5527C23.2155 15.4095 23.7347 15.2484 24.2002 15.0693C24.7015 14.8903 25.0954 14.6396 25.3818 14.3174C25.5609 14.3532 25.8473 14.3711 26.2412 14.3711C26.8499 14.3711 27.4229 14.2995 27.96 14.1562C28.5329 13.9772 29.1058 13.8161 29.6787 13.6729L30.8066 13.5654C31.0931 13.5296 31.3438 13.4401 31.5586 13.2969C31.8092 13.1536 32.0599 13.0283 32.3105 12.9209C32.5612 12.8135 32.8118 12.724 33.0625 12.6523C33.349 12.5807 33.6891 12.5628 34.083 12.5986C34.9424 12.1331 35.8555 11.7751 36.8223 11.5244C37.7891 11.2738 38.7738 11.0589 39.7764 10.8799C40.779 10.665 41.7637 10.4323 42.7305 10.1816C43.6973 9.89518 44.6104 9.4834 45.4697 8.94629H45.6309C46.347 8.94629 47.0452 8.82096 47.7256 8.57031C48.4417 8.31966 49.1042 7.97949 49.7129 7.5498C49.8203 7.58561 49.9277 7.60352 50.0352 7.60352H50.4111C51.4137 7.60352 52.3805 7.46029 53.3115 7.17383C54.2783 6.88737 55.2809 6.74414 56.3193 6.74414C56.9281 6.74414 57.4115 6.83366 57.7695 7.0127C58.1276 7.15592 58.4499 7.35286 58.7363 7.60352C59.0228 7.81836 59.3271 8.0332 59.6494 8.24805C59.9717 8.46289 60.3835 8.62402 60.8848 8.73145C61.207 9.34017 61.3682 10.0026 61.3682 10.7188C61.3682 11.3991 61.3861 12.0973 61.4219 12.8135ZM90.4795 10.0742C89.9782 10.7904 89.4411 11.4707 88.8682 12.1152C88.3311 12.724 87.6507 13.2074 86.8271 13.5654C86.3975 16.0361 86.0394 18.5247 85.7529 21.0312C85.5023 23.5378 85.2158 26.0443 84.8936 28.5508C84.6071 31.0573 84.2669 33.5638 83.873 36.0703C83.515 38.541 83.0137 40.9938 82.3691 43.4287L82.4229 44.0732C82.4945 44.7894 82.4049 45.4697 82.1543 46.1143C81.9036 46.7588 81.7962 47.457 81.832 48.209C81.3307 49.4622 80.901 50.8587 80.543 52.3984C80.1849 53.9023 79.9701 55.3346 79.8984 56.6953C79.5404 57.304 79.236 57.9665 78.9854 58.6826C78.7705 59.3988 78.5378 60.1328 78.2871 60.8848C78.0723 61.6009 77.8216 62.2992 77.5352 62.9795C77.2487 63.624 76.8727 64.2148 76.4072 64.752C76.2998 65.5755 76.085 66.3454 75.7627 67.0615C75.4762 67.8135 75.1361 68.5475 74.7422 69.2637C74.3841 69.9798 74.026 70.6781 73.668 71.3584C73.3457 72.0745 73.113 72.8265 72.9697 73.6143C72.361 74.5452 71.7523 75.4404 71.1436 76.2998C70.5348 77.195 69.9798 78.126 69.4785 79.0928C69.013 79.3076 68.6012 79.5404 68.2432 79.791C67.9209 80.0775 67.5986 80.3281 67.2764 80.543C66.9541 80.7936 66.5781 81.0085 66.1484 81.1875C65.7546 81.3665 65.2712 81.4561 64.6982 81.4561C64.555 81.4561 64.4118 81.4382 64.2686 81.4023C64.1611 81.4023 64.0358 81.4023 63.8926 81.4023C63.3913 81.0085 62.89 80.6146 62.3887 80.2207C61.8874 79.8626 61.3503 79.5404 60.7773 79.2539C60.7773 79.0391 60.7415 78.86 60.6699 78.7168C60.6341 78.5736 60.5983 78.4303 60.5625 78.2871C60.5267 78.1439 60.5088 78.0007 60.5088 77.8574C60.5088 77.7142 60.5446 77.5352 60.6162 77.3203C60.2939 77.1055 59.918 76.7116 59.4883 76.1387C59.0944 75.6016 58.8975 75.1361 58.8975 74.7422C58.8975 74.3841 59.0228 74.2051 59.2734 74.2051C59.2018 73.847 59.0765 73.4889 58.8975 73.1309C58.7542 72.8086 58.6826 72.4684 58.6826 72.1104C58.6826 71.8597 58.7542 71.5911 58.8975 71.3047C58.5036 70.3737 58.1455 69.4069 57.8232 68.4043C57.501 67.4375 57.2861 66.4349 57.1787 65.3965C56.8206 64.931 56.5342 64.3939 56.3193 63.7852C56.1403 63.1406 55.9971 62.4782 55.8896 61.7979C55.7822 61.1175 55.6927 60.4551 55.6211 59.8105C55.5495 59.1302 55.46 58.5036 55.3525 57.9307C55.3167 57.7158 55.2272 57.3757 55.084 56.9102C54.9408 56.4089 54.8691 56.0687 54.8691 55.8896C54.8691 55.6748 54.9049 55.5137 54.9766 55.4062C55.084 55.2988 55.1735 55.1556 55.2451 54.9766C54.8154 53.2578 54.4574 51.5212 54.1709 49.7666C53.9202 48.012 53.6696 46.2575 53.4189 44.5029C53.2041 42.7484 52.9355 41.0117 52.6133 39.293C52.3268 37.5384 51.915 35.8197 51.3779 34.1367V33.6533C51.3779 32.5075 50.9303 31.5944 50.0352 30.9141C50.2142 30.377 50.3037 29.9294 50.3037 29.5713C50.3037 29.1058 50.2321 28.6582 50.0889 28.2285C49.9814 27.7988 49.8561 27.3691 49.7129 26.9395C49.5697 26.5098 49.4622 26.0801 49.3906 25.6504C49.3548 25.2207 49.3906 24.791 49.498 24.3613C49.1042 23.9316 48.7819 23.4661 48.5312 22.9648C48.2806 22.4635 47.9583 22.0339 47.5645 21.6758L47.5107 21.3535C47.5107 21.1745 47.5645 21.0133 47.6719 20.8701C47.7435 20.7269 47.7793 20.5658 47.7793 20.3867C47.7793 20.1361 47.7256 19.9212 47.6182 19.7422C47.4749 19.5632 47.3317 19.402 47.1885 19.2588C47.0094 19.1156 46.8662 18.9723 46.7588 18.8291C46.6156 18.6859 46.5439 18.5247 46.5439 18.3457C46.5439 17.916 46.6872 17.5758 46.9736 17.3252C47.2601 17.0745 47.5824 16.8597 47.9404 16.6807C48.2985 16.4658 48.6387 16.251 48.9609 16.0361C49.319 15.8213 49.5518 15.5169 49.6592 15.123C49.9456 15.1947 50.2321 15.2484 50.5186 15.2842C50.805 15.2842 51.0915 15.3558 51.3779 15.499C51.4137 15.4632 51.4316 15.4095 51.4316 15.3379C51.4316 15.2305 51.2526 15.141 50.8945 15.0693C50.5723 14.9619 50.3574 14.8366 50.25 14.6934C50.5365 14.6217 50.7513 14.5859 50.8945 14.5859C51.6107 14.5859 52.291 14.765 52.9355 15.123C53.6159 15.4811 54.2604 15.8571 54.8691 16.251C54.9408 16.5732 54.9587 16.9134 54.9229 17.2715C54.887 17.5938 54.9945 17.8981 55.2451 18.1846C55.2093 18.3636 55.1914 18.5247 55.1914 18.668C55.2272 18.8112 55.2451 18.9544 55.2451 19.0977C55.2451 19.2767 55.2093 19.4378 55.1377 19.5811C55.1019 19.6885 55.0124 19.7422 54.8691 19.7422C55.1198 20.1719 55.2809 20.6911 55.3525 21.2998C55.46 21.9085 55.5495 22.5352 55.6211 23.1797C55.7285 23.8242 55.8538 24.4508 55.9971 25.0596C56.1403 25.6683 56.4089 26.2054 56.8027 26.6709C56.7311 26.8857 56.6774 27.1006 56.6416 27.3154C56.6416 27.5303 56.6416 27.763 56.6416 28.0137C56.6416 29.1595 56.7848 30.2874 57.0713 31.3975C57.3577 32.5075 57.501 33.6354 57.501 34.7812C57.501 35.4616 57.3936 36.0882 57.1787 36.6611C57.1787 36.9834 57.2861 37.252 57.501 37.4668C57.7158 37.6458 57.859 37.8965 57.9307 38.2188C57.7516 38.6484 57.6621 39.0602 57.6621 39.4541C57.6621 40.2777 57.8232 41.0654 58.1455 41.8174C58.4678 42.5335 58.6289 43.2855 58.6289 44.0732C58.6289 44.3239 58.5931 44.5566 58.5215 44.7715C58.4499 44.9863 58.3783 45.1833 58.3066 45.3623C58.6289 45.6846 58.79 46.0964 58.79 46.5977C58.8258 47.099 58.987 47.5107 59.2734 47.833C59.2376 48.012 59.2018 48.1911 59.166 48.3701C59.166 48.5492 59.0765 48.6924 58.8975 48.7998C59.0765 49.0505 59.166 49.3906 59.166 49.8203C59.2018 50.2142 59.363 50.4469 59.6494 50.5186C59.5778 50.6976 59.5241 50.8587 59.4883 51.002C59.4525 51.1452 59.4346 51.3063 59.4346 51.4854C59.4346 51.8792 59.4883 52.2373 59.5957 52.5596L59.918 53.5264C60.0254 53.8486 60.097 54.1888 60.1328 54.5469C60.2044 54.9049 60.1686 55.2988 60.0254 55.7285C60.1686 55.9434 60.276 56.194 60.3477 56.4805C60.4551 56.7669 60.5446 57.0713 60.6162 57.3936C60.6878 57.68 60.7952 57.9486 60.9385 58.1992C61.0817 58.4141 61.2965 58.5573 61.583 58.6289C61.6188 58.8438 61.5293 58.9512 61.3145 58.9512C61.1354 58.9512 61.0459 59.0407 61.0459 59.2197C61.0459 59.5062 61.1533 59.8643 61.3682 60.2939C61.583 60.6878 61.7799 60.9743 61.959 61.1533C61.9232 61.2965 61.9053 61.4398 61.9053 61.583V62.0664C61.9053 62.5677 61.9769 63.0869 62.1201 63.624C62.2633 64.1253 62.3887 64.6266 62.4961 65.1279C62.6393 65.665 62.7467 66.1842 62.8184 66.6855C62.89 67.1868 62.8542 67.6523 62.7109 68.082C62.9974 68.5833 63.248 69.1204 63.4629 69.6934C63.6777 70.2663 64.0179 70.7497 64.4834 71.1436C64.4834 71.7523 64.6087 72.3252 64.8594 72.8623C65.11 73.4352 65.4323 73.9723 65.8262 74.4736C66.1842 74.4736 66.4528 74.3483 66.6318 74.0977C66.8109 73.8828 66.9541 73.6322 67.0615 73.3457C67.1689 73.0592 67.2943 72.7907 67.4375 72.54C67.5807 72.2894 67.8135 72.1462 68.1357 72.1104C68.1715 71.7523 68.2611 71.4479 68.4043 71.1973C68.5833 70.9824 68.7445 70.7497 68.8877 70.499C69.0667 70.2484 69.21 69.9798 69.3174 69.6934C69.4606 69.4069 69.5143 69.0488 69.4785 68.6191L70.0693 68.458C70.2484 67.4912 70.5169 66.6139 70.875 65.8262C71.2689 65.0742 71.6986 64.2865 72.1641 63.4629V63.1943C72.1641 62.8363 72.2178 62.5319 72.3252 62.2812C72.4326 62.0306 72.4505 61.7083 72.3789 61.3145C72.6296 61.2428 72.8086 61.0996 72.916 60.8848C73.0234 60.6699 73.113 60.4551 73.1846 60.2402C73.2562 59.9896 73.3278 59.7568 73.3994 59.542C73.5068 59.2913 73.668 59.1123 73.8828 59.0049V58.5752C73.847 58.2529 73.8649 57.9486 73.9365 57.6621C74.0439 57.3398 74.026 57.0176 73.8828 56.6953C74.1693 56.5879 74.3841 56.4089 74.5273 56.1582C74.6706 55.9076 74.778 55.639 74.8496 55.3525C74.957 55.0661 75.0107 54.7617 75.0107 54.4395C75.0465 54.1172 75.0645 53.8307 75.0645 53.5801C75.3151 53.2578 75.4941 52.8818 75.6016 52.4521C75.709 51.9867 75.7985 51.5212 75.8701 51.0557C75.9417 50.5902 76.0312 50.1426 76.1387 49.7129C76.2819 49.2832 76.4967 48.9072 76.7832 48.585C76.7116 48.4059 76.6758 48.2448 76.6758 48.1016V47.6182C76.6758 46.9378 76.7832 46.3291 76.998 45.792C77.2129 45.2191 77.4098 44.6104 77.5889 43.9658C78.0544 42.3545 78.3766 40.7074 78.5557 39.0244C78.7705 37.3057 79.0749 35.6227 79.4688 33.9756C79.5046 33.7965 79.5762 33.5101 79.6836 33.1162C79.791 32.7223 79.8984 32.3285 80.0059 31.9346C80.1133 31.5049 80.2028 31.1289 80.2744 30.8066C80.3818 30.4486 80.4355 30.2158 80.4355 30.1084C80.4355 29.8219 80.3639 29.625 80.2207 29.5176C80.1133 29.4102 80.0596 29.2311 80.0596 28.9805C80.2744 28.6582 80.4176 28.2464 80.4893 27.7451C80.5609 27.2438 80.6146 26.7246 80.6504 26.1875C80.6862 25.6146 80.6862 25.0775 80.6504 24.5762C80.6504 24.0391 80.6504 23.5736 80.6504 23.1797C80.6504 22.7858 80.7399 22.2845 80.9189 21.6758C81.098 21.0671 81.2233 20.5299 81.2949 20.0645C81.474 18.847 81.5814 17.6475 81.6172 16.4658C81.6888 15.2484 81.7604 14.0309 81.832 12.8135C82.0827 12.6702 82.2617 12.4912 82.3691 12.2764C82.4766 12.0257 82.5303 11.7751 82.5303 11.5244C82.5303 11.1305 82.4766 10.7546 82.3691 10.3965C82.2975 10.0384 82.2617 9.66243 82.2617 9.26855C82.2617 9.08952 82.2796 8.91048 82.3154 8.73145C82.3512 8.5166 82.4408 8.33757 82.584 8.19434C82.5482 7.94368 82.5124 7.69303 82.4766 7.44238C82.4766 7.19173 82.387 6.97689 82.208 6.79785C82.387 6.33236 82.4766 5.86686 82.4766 5.40137C82.4766 4.97168 82.4229 4.54199 82.3154 4.1123C82.2438 3.68262 82.208 3.23503 82.208 2.76953C82.208 1.87435 82.584 1.22982 83.3359 0.835938H84.0879C84.446 0.835938 84.804 0.818034 85.1621 0.782227C85.5202 0.746419 85.8962 0.638997 86.29 0.459961C86.7555 0.961263 87.2389 1.51628 87.7402 2.125C88.2415 2.69792 88.6712 3.32454 89.0293 4.00488C89.3874 4.68522 89.6559 5.38346 89.835 6.09961C90.014 6.81576 90.0319 7.56771 89.8887 8.35547C90.0319 8.64193 90.1214 8.92839 90.1572 9.21484C90.193 9.5013 90.3005 9.78776 90.4795 10.0742ZM79.5225 39.3467C79.3792 39.3109 79.2718 39.2572 79.2002 39.1855C79.1644 39.0781 79.057 39.0065 78.8779 38.9707V39.5615H79.3076L79.5225 39.3467ZM156.598 62.0127C156.598 62.3708 156.58 62.6393 156.544 62.8184C156.365 62.89 156.222 62.9974 156.114 63.1406C156.007 63.248 155.828 63.2839 155.577 63.248C155.506 63.7852 155.326 64.2327 155.04 64.5908C154.754 64.9489 154.449 65.2712 154.127 65.5576C153.84 65.8799 153.554 66.2021 153.268 66.5244C152.981 66.8825 152.802 67.3301 152.73 67.8672C152.193 68.1536 151.656 68.5296 151.119 68.9951C150.618 69.4964 150.17 69.8366 149.776 70.0156C149.49 70.1589 149.186 70.2663 148.863 70.3379C148.541 70.4453 148.219 70.5706 147.896 70.7139C146.858 71.1794 145.784 71.6628 144.674 72.1641C143.6 72.6654 142.472 72.916 141.29 72.916H140.914C140.771 73.0592 140.592 73.1488 140.377 73.1846C140.162 73.2562 139.947 73.3099 139.732 73.3457C139.518 73.3815 139.303 73.4352 139.088 73.5068C138.873 73.5785 138.712 73.6859 138.604 73.8291C138.211 73.6859 137.781 73.6143 137.315 73.6143H136.939C136.331 73.7575 135.758 73.8649 135.221 73.9365C134.684 74.0081 134.111 74.0439 133.502 74.0439C132.428 74.0439 131.354 73.9723 130.279 73.8291C129.205 73.6859 128.131 73.5605 127.057 73.4531C126.376 72.916 125.821 72.2357 125.392 71.4121C124.962 70.6243 124.747 69.7829 124.747 68.8877C124.747 68.2074 124.89 67.5628 125.177 66.9541C125.463 66.3812 125.839 65.862 126.305 65.3965H126.466C126.788 65.3965 127.11 65.3249 127.433 65.1816C127.791 65.0384 128.131 64.9668 128.453 64.9668C128.811 64.9668 129.098 65.11 129.312 65.3965C129.563 65.6829 129.742 66.0231 129.85 66.417C129.993 66.8109 130.082 67.2048 130.118 67.5986C130.154 68.0283 130.172 68.3685 130.172 68.6191C130.566 68.7982 130.978 68.9056 131.407 68.9414C131.873 68.9772 132.338 68.9951 132.804 68.9951C133.269 68.9951 133.788 68.9593 134.361 68.8877C134.934 68.8519 135.507 68.7624 136.08 68.6191C136.689 68.5117 137.262 68.3685 137.799 68.1895C138.372 68.0104 138.855 67.7777 139.249 67.4912C141.218 67.3122 142.955 66.8646 144.459 66.1484C145.963 65.4323 147.556 64.5908 149.239 63.624C149.311 63.2301 149.454 62.9258 149.669 62.7109C149.92 62.4603 150.045 62.1022 150.045 61.6367C150.045 61.5651 150.027 61.4935 149.991 61.4219C149.991 61.3145 149.991 61.2249 149.991 61.1533C149.275 60.2581 148.523 59.4704 147.735 58.79C146.983 58.1097 145.999 57.6621 144.781 57.4473C144.638 57.125 144.405 56.8923 144.083 56.749C143.761 56.57 143.421 56.4089 143.062 56.2656C142.704 56.1224 142.364 55.9792 142.042 55.8359C141.72 55.6569 141.487 55.3704 141.344 54.9766C140.377 54.7975 139.374 54.5827 138.336 54.332C137.333 54.0456 136.474 53.5443 135.758 52.8281C135.185 52.7923 134.63 52.6849 134.093 52.5059C133.591 52.291 133.09 52.0941 132.589 51.915C132.088 51.7002 131.568 51.5212 131.031 51.3779C130.494 51.1989 129.939 51.1094 129.366 51.1094C129.223 50.8587 129.026 50.6618 128.775 50.5186C128.525 50.3753 128.238 50.25 127.916 50.1426C127.63 50.0352 127.343 49.9277 127.057 49.8203C126.806 49.6771 126.609 49.4801 126.466 49.2295C126.323 49.2653 126.215 49.3369 126.144 49.4443C126.072 49.5518 125.947 49.6055 125.768 49.6055H125.553C125.481 49.3906 125.338 49.2474 125.123 49.1758C124.908 49.0684 124.783 48.8714 124.747 48.585C124.103 48.5492 123.512 48.4238 122.975 48.209C122.473 47.9941 121.99 47.7614 121.524 47.5107C121.095 47.2243 120.647 46.9557 120.182 46.7051C119.716 46.4544 119.197 46.2575 118.624 46.1143C118.266 45.8278 117.926 45.5234 117.604 45.2012C117.317 44.8431 116.941 44.6641 116.476 44.6641C116.368 44.6641 116.171 44.6999 115.885 44.7715C115.813 44.127 115.545 43.6794 115.079 43.4287C114.614 43.1423 114.112 42.8916 113.575 42.6768C113.217 41.7458 112.734 40.9222 112.125 40.2061C111.516 39.4899 110.854 38.8275 110.138 38.2188C110.209 38.0039 110.245 37.8428 110.245 37.7354C110.245 37.3773 110.156 37.0729 109.977 36.8223C109.798 36.5358 109.601 36.3031 109.386 36.124C108.884 34.5127 108.634 32.9372 108.634 31.3975C108.634 29.249 109.117 27.2617 110.084 25.4355C111.015 23.5736 112.501 22.1771 114.542 21.2461C114.578 20.9596 114.667 20.709 114.811 20.4941C114.99 20.2793 115.097 20.0286 115.133 19.7422C115.455 19.7422 115.706 19.6706 115.885 19.5273C116.064 19.3841 116.225 19.2409 116.368 19.0977C116.547 18.9186 116.726 18.7575 116.905 18.6143C117.084 18.471 117.317 18.3815 117.604 18.3457C118.964 17.1641 120.414 16.2152 121.954 15.499C123.494 14.7471 125.069 13.9772 126.681 13.1895C127.003 13.0462 127.271 12.7777 127.486 12.3838H127.809C128.167 12.3838 128.435 12.3122 128.614 12.1689C128.829 11.9899 129.133 11.9362 129.527 12.0078C129.671 11.793 129.85 11.6497 130.064 11.5781C130.315 11.5065 130.548 11.4528 130.763 11.417C131.013 11.3454 131.246 11.2559 131.461 11.1484C131.676 11.041 131.819 10.8799 131.891 10.665H132.267C132.875 10.665 133.466 10.5755 134.039 10.3965C134.612 10.1816 135.185 9.94889 135.758 9.69824H136.134C136.85 9.69824 137.512 9.57292 138.121 9.32227C138.766 9.03581 139.446 8.83887 140.162 8.73145C140.449 8.65983 140.735 8.64193 141.021 8.67773C141.308 8.71354 141.594 8.73145 141.881 8.73145C142.06 8.73145 142.275 8.71354 142.525 8.67773C142.776 8.64193 142.955 8.53451 143.062 8.35547H143.17C143.385 8.35547 143.51 8.42708 143.546 8.57031C143.582 8.71354 143.689 8.78516 143.868 8.78516C144.119 8.78516 144.369 8.74935 144.62 8.67773C144.871 8.60612 145.121 8.57031 145.372 8.57031C146.446 8.57031 147.503 8.67773 148.541 8.89258C149.615 9.10742 150.672 9.30436 151.71 9.4834C151.782 9.91309 151.961 10.2174 152.247 10.3965C152.569 10.5755 152.91 10.7367 153.268 10.8799V11.0947C153.268 11.3812 153.339 11.6139 153.482 11.793C153.339 12.2943 153.089 12.6702 152.73 12.9209C152.372 13.1715 151.979 13.3864 151.549 13.5654C151.728 13.7087 151.835 13.9056 151.871 14.1562C151.907 14.4069 151.925 14.6396 151.925 14.8545V15.499L151.656 15.4453C151.083 15.4453 150.797 15.7139 150.797 16.251C150.331 15.9645 149.812 15.7855 149.239 15.7139C148.702 15.6423 148.165 15.6064 147.628 15.6064C146.912 15.6064 146.16 15.6423 145.372 15.7139C144.584 15.7497 143.814 15.7318 143.062 15.6602C142.776 16.0182 142.418 16.2868 141.988 16.4658C141.559 16.609 141.129 16.6807 140.699 16.6807C140.234 16.6807 139.786 16.5911 139.356 16.4121C138.927 16.1973 138.622 15.8929 138.443 15.499C138.264 15.4274 138.103 15.3916 137.96 15.3916H137.477C136.904 15.3916 136.331 15.4632 135.758 15.6064C135.221 15.7139 134.666 15.8571 134.093 16.0361C133.52 16.1794 132.947 16.3405 132.374 16.5195C131.837 16.6628 131.282 16.7523 130.709 16.7881C130.494 17.0745 130.208 17.2715 129.85 17.3789C129.492 17.4863 129.205 17.6833 128.99 17.9697C128.238 18.113 127.558 18.3636 126.949 18.7217C126.34 19.0439 125.75 19.402 125.177 19.7959L123.512 20.9238C122.975 21.2819 122.366 21.5863 121.686 21.8369C121.184 22.374 120.719 22.8037 120.289 23.126C119.859 23.4482 119.304 23.7347 118.624 23.9854C118.194 24.1286 117.944 24.3434 117.872 24.6299C117.836 24.9163 117.693 25.2028 117.442 25.4893C117.228 25.7399 116.959 25.9368 116.637 26.0801C116.35 26.1875 116.1 26.3844 115.885 26.6709C115.706 26.9215 115.562 27.2259 115.455 27.584C115.383 27.9062 115.294 28.2285 115.187 28.5508C115.079 28.873 114.954 29.1953 114.811 29.5176C114.667 29.804 114.452 30.0547 114.166 30.2695C114.166 30.4128 114.148 30.556 114.112 30.6992C114.112 30.8424 114.112 30.9678 114.112 31.0752C114.112 31.5765 114.166 32.0957 114.273 32.6328C114.417 33.1341 114.506 33.6354 114.542 34.1367C115.258 35.39 116.1 36.5358 117.066 37.5742C118.033 38.5768 119.072 39.5078 120.182 40.3672C121.292 41.2266 122.438 42.0322 123.619 42.7842C124.837 43.5361 126.036 44.2702 127.218 44.9863C127.647 44.9505 128.041 45.0042 128.399 45.1475C128.757 45.2549 129.133 45.3265 129.527 45.3623C129.957 45.6846 130.458 45.9352 131.031 46.1143L132.75 46.6514C133.323 46.8304 133.878 47.0452 134.415 47.2959C134.952 47.5107 135.4 47.8151 135.758 48.209C135.937 48.2448 136.098 48.2985 136.241 48.3701C136.384 48.4059 136.546 48.4238 136.725 48.4238C136.939 48.4238 137.065 48.3522 137.101 48.209C138.712 48.8177 140.287 49.498 141.827 50.25C143.367 50.9661 144.996 51.5212 146.715 51.915C147.395 52.488 148.147 52.9893 148.971 53.4189C149.794 53.8486 150.618 54.2962 151.441 54.7617C152.265 55.1914 153.053 55.6748 153.805 56.2119C154.557 56.7132 155.219 57.3219 155.792 58.0381C155.864 58.7184 156.007 59.3809 156.222 60.0254C156.472 60.6341 156.598 61.2965 156.598 62.0127ZM193.014 38.917C192.87 39.2751 192.727 39.6152 192.584 39.9375C192.441 40.2598 192.333 40.6178 192.262 41.0117C192.011 41.1908 191.725 41.334 191.402 41.4414C191.116 41.513 190.812 41.6025 190.489 41.71C190.167 41.7816 189.863 41.889 189.576 42.0322C189.326 42.1396 189.129 42.3187 188.985 42.5693C188.878 43.1064 188.824 43.6077 188.824 44.0732C188.824 44.682 188.932 45.2012 189.146 45.6309C189.039 45.9531 188.967 46.2933 188.932 46.6514C188.896 47.0094 188.878 47.3496 188.878 47.6719C188.878 48.8535 189.021 50.0352 189.308 51.2168C189.594 52.3626 189.755 53.5264 189.791 54.708C189.791 54.887 189.773 55.084 189.737 55.2988C189.701 55.5137 189.684 55.7106 189.684 55.8896C189.684 56.6416 189.97 57.1429 190.543 57.3936C190.436 57.5726 190.382 57.7337 190.382 57.877C190.382 58.1634 190.418 58.4141 190.489 58.6289C190.561 58.8438 190.579 59.0765 190.543 59.3271C190.722 59.6852 190.901 60.0075 191.08 60.2939C191.259 60.5446 191.384 60.8669 191.456 61.2607C191.205 61.762 190.901 62.2275 190.543 62.6572C190.185 63.0511 189.934 63.5524 189.791 64.1611C189.648 64.1253 189.487 64.1074 189.308 64.1074C189.057 64.1074 188.86 64.1611 188.717 64.2686C188.574 64.376 188.448 64.5013 188.341 64.6445C188.269 64.8236 188.18 64.9847 188.072 65.1279C187.965 65.307 187.822 65.4323 187.643 65.5039H187.481C187.302 65.5397 187.141 65.5218 186.998 65.4502C186.891 65.4144 186.783 65.3965 186.676 65.3965C186.604 65.3965 186.461 65.4323 186.246 65.5039C185.96 65.1458 185.763 64.7161 185.655 64.2148C185.548 63.7493 185.494 63.2839 185.494 62.8184C185.494 62.3171 185.566 61.8695 185.709 61.4756C185.315 61.1533 185.064 60.6699 184.957 60.0254C184.885 59.3809 184.796 58.8438 184.688 58.4141C184.402 57.0892 184.062 55.8001 183.668 54.5469C183.31 53.2936 183.095 52.0046 183.023 50.6797C182.988 50.1784 182.97 49.695 182.97 49.2295V46.4365C182.97 45.971 182.988 45.5234 183.023 45.0938C183.023 44.7715 183.041 44.4671 183.077 44.1807C183.149 43.8584 183.185 43.5361 183.185 43.2139C183.185 42.7842 183.041 42.3724 182.755 41.9785C180.213 42.0859 177.796 42.5514 175.504 43.375C173.248 44.1628 170.992 45.1117 168.736 46.2217C168.593 47.0452 168.504 47.8509 168.468 48.6387C168.432 49.4264 168.414 50.2321 168.414 51.0557V53.4189C168.414 54.3141 168.45 55.0661 168.521 55.6748C168.701 56.7132 169.22 57.5189 170.079 58.0918C170.974 58.6289 171.869 59.0407 172.765 59.3271C172.729 59.8643 172.621 60.3298 172.442 60.7236C172.263 61.0817 172.031 61.4219 171.744 61.7441C171.493 62.0306 171.207 62.3171 170.885 62.6035C170.562 62.89 170.24 63.2122 169.918 63.5703C169.632 63.3913 169.345 63.266 169.059 63.1943C168.772 63.1227 168.468 63.0869 168.146 63.0869C167.823 63.0511 167.501 63.0153 167.179 62.9795C166.856 62.9437 166.534 62.8721 166.212 62.7646L165.03 61.1533C164.636 60.6162 164.207 60.0791 163.741 59.542V59.0586C163.741 58.0918 163.562 57.1608 163.204 56.2656C162.846 55.3704 162.577 54.4574 162.398 53.5264C162.506 53.2041 162.577 52.8818 162.613 52.5596C162.649 52.2373 162.667 51.8971 162.667 51.5391C162.667 50.8229 162.631 50.1247 162.56 49.4443C162.524 48.764 162.542 48.0837 162.613 47.4033H162.345C162.022 47.4033 161.682 47.4928 161.324 47.6719C160.966 47.8151 160.608 47.9941 160.25 48.209C159.928 48.388 159.605 48.5671 159.283 48.7461C158.997 48.8893 158.746 48.9609 158.531 48.9609C158.424 48.9609 158.316 48.943 158.209 48.9072C158.102 48.8714 157.976 48.8535 157.833 48.8535C157.654 48.8535 157.439 48.9251 157.188 49.0684C156.938 49.2116 156.669 49.3727 156.383 49.5518C156.061 49.695 155.738 49.8382 155.416 49.9814C155.094 50.1247 154.771 50.1963 154.449 50.1963C153.948 50.1963 153.447 49.9814 152.945 49.5518C152.874 49.2653 152.856 48.9967 152.892 48.7461C152.892 48.4954 152.892 48.2269 152.892 47.9404C152.892 47.654 152.838 47.3496 152.73 47.0273C152.981 46.5618 153.321 46.2038 153.751 45.9531C154.145 45.6667 154.575 45.416 155.04 45.2012C155.47 44.9505 155.917 44.7178 156.383 44.5029C156.848 44.2523 157.242 43.93 157.564 43.5361H157.887C158.388 43.5361 158.836 43.4287 159.229 43.2139C159.659 42.999 160.143 42.9095 160.68 42.9453C160.859 42.8737 160.984 42.6051 161.056 42.1396L161.271 42.1934C162.058 42.1934 162.757 41.9248 163.365 41.3877C163.759 39.1676 164.081 36.9297 164.332 34.6738C164.583 32.418 164.708 30.1621 164.708 27.9062C164.708 27.6914 164.636 27.4766 164.493 27.2617C164.422 26.9753 164.386 26.7067 164.386 26.4561V25.6504C164.386 25.2565 164.404 24.8447 164.439 24.415C164.475 23.9854 164.565 23.5557 164.708 23.126C165.066 22.9111 165.442 22.8037 165.836 22.8037C166.301 22.8037 166.749 22.8753 167.179 23.0186C167.644 23.126 168.092 23.2155 168.521 23.2871C168.844 23.6094 169.076 23.9674 169.22 24.3613C169.399 24.7552 169.506 25.167 169.542 25.5967C169.578 25.9906 169.578 26.4023 169.542 26.832C169.542 27.2259 169.542 27.6198 169.542 28.0137C169.542 28.8014 169.632 29.5713 169.811 30.3232C169.99 31.0752 170.079 31.8092 170.079 32.5254C170.079 32.7044 170.007 32.8477 169.864 32.9551C169.757 33.0267 169.703 33.2594 169.703 33.6533C169.703 34.0472 169.739 34.459 169.811 34.8887C169.882 35.3184 169.918 35.748 169.918 36.1777C169.918 36.679 169.846 37.1982 169.703 37.7354C169.56 38.2725 169.435 38.7917 169.327 39.293C171.476 39.1139 173.678 38.8454 175.934 38.4873C178.189 38.1292 180.338 37.5563 182.379 36.7686C182.415 36.6969 182.433 36.5895 182.433 36.4463C182.433 36.2314 182.415 36.0166 182.379 35.8018C182.343 35.5869 182.325 35.3542 182.325 35.1035C182.325 34.6738 182.468 34.3337 182.755 34.083C182.576 33.0804 182.451 32.0778 182.379 31.0752C182.307 30.0726 182.271 29.07 182.271 28.0674V25.0059C182.271 24.0033 182.254 23.0007 182.218 21.998C182.504 21.819 182.809 21.7295 183.131 21.7295C183.525 21.7295 183.883 21.8369 184.205 22.0518C184.563 22.2308 184.975 22.3203 185.44 22.3203C185.763 22.3203 186.031 22.2666 186.246 22.1592C186.64 22.5173 186.909 22.9827 187.052 23.5557C187.195 24.1286 187.32 24.7194 187.428 25.3281C187.535 25.9368 187.643 26.5456 187.75 27.1543C187.893 27.7272 188.162 28.1927 188.556 28.5508L188.609 28.7119C188.609 28.8551 188.538 28.9626 188.395 29.0342C188.251 29.1058 188.18 29.249 188.18 29.4639V29.6787C188.323 30.2516 188.43 30.8424 188.502 31.4512C188.574 32.0599 188.627 32.6865 188.663 33.3311C188.735 33.9398 188.824 34.5485 188.932 35.1572C189.039 35.7301 189.236 36.2673 189.522 36.7686C189.701 36.7327 189.934 36.7148 190.221 36.7148C190.937 36.7148 191.492 36.9655 191.886 37.4668C192.315 37.9323 192.691 38.4157 193.014 38.917ZM230.45 32.9014C230.235 33.2236 230.11 33.5817 230.074 33.9756C230.038 34.3695 230.021 34.7275 230.021 35.0498C230.021 35.4795 230.021 35.9092 230.021 36.3389C230.056 36.7327 230.074 37.1266 230.074 37.5205V38.3262C230.003 38.5768 229.895 38.8275 229.752 39.0781C229.609 39.3288 229.501 39.5794 229.43 39.8301C228.928 41.1549 228.678 42.4798 228.678 43.8047V43.9121C228.499 44.3418 228.32 44.7357 228.141 45.0938C227.997 45.4518 227.854 45.8099 227.711 46.168C227.568 46.4902 227.46 46.8483 227.389 47.2422C227.317 47.6003 227.299 48.0299 227.335 48.5312C226.834 49.7845 226.171 50.9303 225.348 51.9688C224.524 52.9714 223.718 54.0098 222.931 55.084C222.179 55.3704 221.48 55.7464 220.836 56.2119C220.227 56.6774 219.636 57.1966 219.063 57.7695C217.953 58.1276 216.861 58.5394 215.787 59.0049C214.713 59.4704 213.746 60.097 212.887 60.8848C212.206 60.9564 211.526 61.0638 210.846 61.207C210.165 61.3503 209.503 61.5651 208.858 61.8516H208.214C207.892 61.8516 207.659 61.7799 207.516 61.6367C207.05 61.8874 206.567 62.0664 206.065 62.1738C205.564 62.2454 205.063 62.2812 204.562 62.2812C203.917 62.2812 203.272 62.2454 202.628 62.1738C202.019 62.0664 201.393 61.959 200.748 61.8516C200.39 61.3503 199.889 60.9743 199.244 60.7236C198.6 60.4372 198.027 60.1686 197.525 59.918C196.487 58.4857 195.735 57.1071 195.27 55.7822C194.804 54.4215 194.321 52.8997 193.819 51.2168C193.891 50.7155 194.016 50.2321 194.195 49.7666C194.374 49.2653 194.446 48.7282 194.41 48.1553C195.055 46.2933 195.896 44.6104 196.935 43.1064C198.009 41.5667 199.226 40.0986 200.587 38.7021C200.587 38.4873 200.623 38.3083 200.694 38.165C200.802 38.0218 200.82 37.807 200.748 37.5205C200.784 37.5563 200.855 37.5742 200.963 37.5742C201.249 37.5742 201.428 37.5026 201.5 37.3594C201.572 37.1803 201.59 36.9834 201.554 36.7686C202.843 35.945 204.007 34.9961 205.045 33.9219C206.119 32.8477 207.337 31.9525 208.697 31.2363C208.805 30.9141 208.984 30.6455 209.234 30.4307C209.485 30.2158 209.682 29.9652 209.825 29.6787C210.971 29.3564 212.009 28.873 212.94 28.2285C213.871 27.584 214.856 27.0111 215.895 26.5098C216.467 26.1875 217.005 25.9727 217.506 25.8652C218.043 25.722 218.616 25.5788 219.225 25.4355C219.439 25.3639 219.636 25.3102 219.815 25.2744C219.994 25.2386 220.191 25.2207 220.406 25.2207C221.051 25.2207 221.677 25.346 222.286 25.5967C222.895 25.8115 223.521 25.9189 224.166 25.9189C224.345 25.9189 224.488 25.9189 224.596 25.9189C224.739 25.8831 224.882 25.8473 225.025 25.8115C225.634 26.5635 226.404 27.1364 227.335 27.5303C227.55 28.0674 227.8 28.5329 228.087 28.9268C228.409 29.3206 228.731 29.7145 229.054 30.1084C229.376 30.4665 229.662 30.8783 229.913 31.3438C230.2 31.7734 230.379 32.2926 230.45 32.9014ZM225.079 35.6943C225.079 35.5153 225.061 35.3542 225.025 35.2109C224.667 35.1035 224.327 34.9603 224.005 34.7812C223.683 34.6022 223.325 34.5127 222.931 34.5127C222.68 34.5127 222.429 34.5664 222.179 34.6738C222.143 34.4232 222.035 34.2441 221.856 34.1367C221.713 34.0293 221.534 33.9398 221.319 33.8682C221.14 33.7607 220.943 33.6891 220.729 33.6533C220.549 33.5817 220.388 33.4743 220.245 33.3311C220.138 33.0446 220.012 32.7581 219.869 32.4717C219.762 32.1494 219.547 31.9167 219.225 31.7734C218.902 32.0957 218.526 32.3643 218.097 32.5791C217.667 32.7581 217.219 32.9372 216.754 33.1162C216.324 33.2952 215.895 33.5101 215.465 33.7607C215.071 34.0114 214.731 34.3158 214.444 34.6738H213.478C213.263 35.0677 212.958 35.3721 212.564 35.5869C212.171 35.766 211.83 36.0345 211.544 36.3926C210.971 36.679 210.434 37.0371 209.933 37.4668C209.467 37.8607 209.002 38.2904 208.536 38.7559C208.071 39.1855 207.605 39.6331 207.14 40.0986C206.71 40.5641 206.244 40.9938 205.743 41.3877C205.278 42.3903 204.758 43.2676 204.186 44.0195C203.648 44.7357 203.129 45.4697 202.628 46.2217C202.162 46.9736 201.751 47.7972 201.393 48.6924C201.07 49.5518 200.909 50.626 200.909 51.915V52.4521C200.909 52.6312 200.927 52.8102 200.963 52.9893C201.428 53.4906 201.804 54.0277 202.091 54.6006C202.413 55.1735 202.932 55.5853 203.648 55.8359C204.365 56.1224 205.117 56.2477 205.904 56.2119C206.728 56.1761 207.516 56.2656 208.268 56.4805C209.986 56.1582 211.633 55.639 213.209 54.9229C214.82 54.1709 216.342 53.2757 217.774 52.2373C217.989 52.0583 218.24 51.8792 218.526 51.7002C218.813 51.4854 219.046 51.2705 219.225 51.0557C219.404 50.8766 219.547 50.6797 219.654 50.4648C219.798 50.25 219.941 50.0531 220.084 49.874C220.37 49.4085 220.693 48.943 221.051 48.4775C221.409 48.012 221.785 47.5824 222.179 47.1885C222.358 46.4007 222.59 45.6488 222.877 44.9326C223.163 44.1807 223.45 43.4466 223.736 42.7305C224.023 42.0143 224.256 41.2803 224.435 40.5283C224.649 39.7764 224.757 38.9886 224.757 38.165C224.757 37.986 224.739 37.7891 224.703 37.5742C224.703 37.3594 224.685 37.1624 224.649 36.9834C224.936 36.5895 225.079 36.1598 225.079 35.6943ZM279.327 29.6787H279.112C279.041 29.6429 278.969 29.6429 278.897 29.6787C278.826 29.7145 278.79 29.7682 278.79 29.8398C278.862 30.1263 278.897 30.3232 278.897 30.4307C278.897 30.8604 278.754 31.2363 278.468 31.5586C278.217 31.8451 278.092 32.0957 278.092 32.3105C278.092 32.418 278.146 32.5075 278.253 32.5791C278.396 32.6507 278.504 32.7044 278.575 32.7402C278.396 32.9551 278.235 33.1878 278.092 33.4385C277.949 33.6891 277.787 33.904 277.608 34.083C277.68 35.3363 277.823 36.5716 278.038 37.7891C278.289 38.9707 278.414 40.1702 278.414 41.3877C278.414 41.9964 278.342 42.6051 278.199 43.2139C278.092 43.7868 277.966 44.3776 277.823 44.9863C277.68 45.5592 277.537 46.1501 277.394 46.7588C277.286 47.3317 277.232 47.9225 277.232 48.5312C276.767 49.4622 276.266 50.3574 275.729 51.2168C275.191 52.0404 274.798 52.9535 274.547 53.9561C273.723 54.4574 273.007 55.084 272.398 55.8359C271.826 56.5521 271.253 57.2682 270.68 57.9844C269.426 58.4141 268.281 58.987 267.242 59.7031C267.063 59.7389 266.902 59.7568 266.759 59.7568H266.329C264.968 59.7568 263.805 59.5062 262.838 59.0049C261.871 58.5036 261.03 57.859 260.313 57.0713C259.633 56.2477 259.042 55.3167 258.541 54.2783C258.04 53.2399 257.574 52.1657 257.145 51.0557C256.321 51.6644 255.569 52.3626 254.889 53.1504C254.244 53.9023 253.582 54.6543 252.901 55.4062C252.687 55.6927 252.418 56.0329 252.096 56.4268C251.809 56.7848 251.523 57.0534 251.236 57.2324C251.093 57.304 250.932 57.3757 250.753 57.4473C250.61 57.4831 250.449 57.5368 250.27 57.6084C249.267 58.1813 248.479 58.9512 247.906 59.918C247.19 60.2044 246.492 60.5267 245.812 60.8848C245.167 61.2428 244.54 61.6188 243.932 62.0127C243.251 62.0485 242.571 62.1022 241.891 62.1738C241.246 62.2096 240.602 62.2275 239.957 62.2275C238.954 62.2275 238.238 62.1738 237.809 62.0664C237.415 61.9232 237.092 61.762 236.842 61.583C236.627 61.3682 236.394 61.1175 236.144 60.8311C235.929 60.5446 235.499 60.2402 234.854 59.918C234.675 59.4525 234.496 58.987 234.317 58.5215C234.174 58.056 233.959 57.6263 233.673 57.2324V56.4805C233.673 56.1582 233.655 55.8538 233.619 55.5674C233.619 55.2809 233.565 55.0303 233.458 54.8154C233.351 54.5648 233.172 54.4036 232.921 54.332C232.921 53.0072 233.082 51.7002 233.404 50.4111C233.727 49.1221 233.995 47.8151 234.21 46.4902C234.389 45.7383 234.496 44.9684 234.532 44.1807C234.568 44.0016 234.586 43.8047 234.586 43.5898C234.586 43.375 234.622 43.1602 234.693 42.9453C234.765 42.7305 234.89 42.5514 235.069 42.4082C235.248 42.265 235.374 42.0501 235.445 41.7637C235.624 41.2624 235.732 40.7074 235.768 40.0986C235.803 39.4899 235.857 38.917 235.929 38.3799C236.108 37.3057 236.305 36.2314 236.52 35.1572C236.77 34.083 237.057 33.0267 237.379 31.9883C237.343 31.8092 237.325 31.6481 237.325 31.5049V30.9678C237.325 29.6071 237.415 28.2822 237.594 26.9932C237.809 25.7041 237.916 24.3792 237.916 23.0186C237.916 22.374 237.862 21.6937 237.755 20.9775C237.934 20.6195 238.131 20.2972 238.346 20.0107C238.596 19.6885 238.919 19.4378 239.312 19.2588C240.064 19.6527 240.799 20.0824 241.515 20.5479C242.267 20.9775 242.983 21.4609 243.663 21.998V23.2871C243.663 24.3255 243.627 25.4355 243.556 26.6172C243.52 27.763 243.412 28.9268 243.233 30.1084C243.09 31.29 242.893 32.4359 242.643 33.5459C242.392 34.6559 242.052 35.6764 241.622 36.6074V38.3262C240.978 39.472 240.548 40.6715 240.333 41.9248C240.118 43.1781 239.868 44.4313 239.581 45.6846C239.509 46.0785 239.366 46.5439 239.151 47.0811C238.937 47.6182 238.829 48.0837 238.829 48.4775C238.829 48.6566 238.847 48.8356 238.883 49.0146C238.954 49.1937 239.008 49.3727 239.044 49.5518C238.757 50.1963 238.596 50.8945 238.561 51.6465C238.561 52.3626 238.471 53.0788 238.292 53.7949C238.578 54.2604 238.829 54.7617 239.044 55.2988C239.295 55.8001 239.563 56.3193 239.85 56.8564L240.387 56.8027C240.709 56.8027 241.049 56.8385 241.407 56.9102C241.765 56.946 242.105 56.9639 242.428 56.9639C242.607 56.9639 242.786 56.9639 242.965 56.9639C243.144 56.9281 243.323 56.8923 243.502 56.8564C243.717 56.4626 244.003 56.1582 244.361 55.9434C244.719 55.6927 245.077 55.4779 245.436 55.2988C245.829 55.1198 246.188 54.9229 246.51 54.708C246.868 54.4932 247.154 54.1888 247.369 53.7949H248.121C248.193 53.6875 248.318 53.5443 248.497 53.3652C248.712 53.1862 248.909 53.0072 249.088 52.8281C249.267 52.6491 249.41 52.4701 249.518 52.291C249.661 52.112 249.715 51.9688 249.679 51.8613C250.108 51.6823 250.466 51.4495 250.753 51.1631C251.075 50.8408 251.38 50.5186 251.666 50.1963C251.952 49.8382 252.239 49.498 252.525 49.1758C252.812 48.8535 253.152 48.585 253.546 48.3701C253.51 48.2985 253.492 48.209 253.492 48.1016C253.492 47.7793 253.582 47.5286 253.761 47.3496C253.976 47.1706 254.029 46.8483 253.922 46.3828L254.083 46.4365C254.262 46.4365 254.387 46.3828 254.459 46.2754C254.531 46.168 254.584 46.0426 254.62 45.8994C254.692 45.7562 254.763 45.6309 254.835 45.5234C254.942 45.3802 255.086 45.2907 255.265 45.2549V45.1475C255.265 44.5029 255.39 43.8942 255.641 43.3213C255.927 42.7484 256.07 42.1396 256.07 41.4951C256.07 41.3161 256.052 41.1549 256.017 41.0117C255.981 40.8327 255.927 40.6536 255.855 40.4746C256.178 40.1165 256.375 39.7048 256.446 39.2393C256.554 38.7738 256.607 38.2904 256.607 37.7891C256.643 37.2878 256.679 36.7865 256.715 36.2852C256.751 35.7839 256.894 35.3005 257.145 34.835C257.145 34.4769 257.019 34.2262 256.769 34.083L257.413 33.2236C257.628 32.9372 257.879 32.7044 258.165 32.5254H258.272C258.666 32.5254 259.007 32.6328 259.293 32.8477C259.615 33.0267 259.902 33.2415 260.152 33.4922C260.439 33.707 260.725 33.9398 261.012 34.1904C261.298 34.4053 261.62 34.5664 261.979 34.6738V35.8555C262.337 35.9987 262.605 36.2493 262.784 36.6074C262.748 37.5742 262.713 38.541 262.677 39.5078C262.677 40.4746 262.677 41.4235 262.677 42.3545C262.677 43.7868 262.713 45.2191 262.784 46.6514C262.856 48.0479 263.035 49.4443 263.321 50.8408C263.715 51.2347 264.109 51.6286 264.503 52.0225C264.933 52.4163 265.255 52.8639 265.47 53.3652H266.114C267.368 53.3652 268.334 52.9714 269.015 52.1836C269.695 51.36 270.178 50.4111 270.465 49.3369C271.002 49.0863 271.396 48.7461 271.646 48.3164C271.933 47.8509 272.148 47.3496 272.291 46.8125C272.47 46.2754 272.613 45.7383 272.721 45.2012C272.864 44.6283 273.079 44.127 273.365 43.6973C273.401 43.2676 273.419 42.8379 273.419 42.4082V41.0654C273.419 38.9886 273.312 36.9297 273.097 34.8887C272.918 32.8118 272.81 30.7529 272.774 28.7119C272.631 28.4255 272.524 28.0853 272.452 27.6914L272.291 26.5098C272.255 26.1159 272.166 25.7578 272.022 25.4355C271.915 25.0775 271.736 24.8268 271.485 24.6836C271.593 24.3255 271.646 23.8958 271.646 23.3945C271.646 22.929 271.593 22.4635 271.485 21.998C271.414 21.5326 271.324 21.0671 271.217 20.6016C271.503 20.3509 271.736 20.1003 271.915 19.8496C272.094 19.599 272.398 19.4736 272.828 19.4736C273.079 19.4736 273.294 19.5452 273.473 19.6885C273.688 19.8317 273.884 19.9928 274.063 20.1719C274.243 20.3509 274.422 20.512 274.601 20.6553C274.815 20.7985 275.066 20.8701 275.353 20.8701C275.424 20.8701 275.496 20.8701 275.567 20.8701C275.675 20.8343 275.782 20.8164 275.89 20.8164C276.248 21.1745 276.534 21.6221 276.749 22.1592C277 22.6963 277.215 23.2692 277.394 23.8779C277.608 24.4508 277.823 25.0238 278.038 25.5967C278.289 26.1696 278.593 26.6888 278.951 27.1543C278.951 27.2617 278.933 27.3691 278.897 27.4766C278.897 27.5482 278.897 27.6377 278.897 27.7451C278.897 28.0674 278.951 28.3896 279.059 28.7119C279.166 29.0342 279.256 29.3564 279.327 29.6787ZM311.178 57.2324C311.178 57.8411 311.017 58.3783 310.694 58.8438C310.408 59.2734 310.3 59.8105 310.372 60.4551C309.871 60.7415 309.459 61.1175 309.137 61.583C308.814 62.0485 308.51 62.5319 308.224 63.0332C305.86 64.5729 303.318 65.8083 300.597 66.7393C297.911 67.7061 295.136 68.1895 292.271 68.1895C292.092 68.1895 291.931 68.0999 291.788 67.9209C291.645 67.7777 291.502 67.6165 291.358 67.4375C291.215 67.2585 291.054 67.0794 290.875 66.9004C290.732 66.7572 290.553 66.6855 290.338 66.6855C290.087 66.6855 289.89 66.7393 289.747 66.8467C289.747 66.7751 289.747 66.7035 289.747 66.6318C289.783 66.596 289.801 66.5423 289.801 66.4707C289.801 66.041 289.747 65.5934 289.64 65.1279C289.532 64.6982 289.479 64.2686 289.479 63.8389C289.479 63.3376 289.568 62.9258 289.747 62.6035H290.392C290.75 62.6035 291.09 62.5856 291.412 62.5498C291.77 62.4782 292.146 62.4424 292.54 62.4424C292.934 62.4424 293.292 62.5498 293.614 62.7646C295.584 62.693 297.446 62.335 299.2 61.6904C300.991 61.0101 302.799 60.3477 304.625 59.7031C304.911 59.3092 305.073 58.8796 305.108 58.4141C305.18 57.9128 305.323 57.4473 305.538 57.0176C304.607 56.2298 303.658 55.6211 302.691 55.1914C301.76 54.7259 300.668 54.5648 299.415 54.708C298.663 54.2425 297.857 53.974 296.998 53.9023C296.174 53.8307 295.333 53.7233 294.474 53.5801C294.259 53.5443 294.026 53.5085 293.775 53.4727C293.561 53.401 293.328 53.3652 293.077 53.3652C292.898 53.3652 292.719 53.4189 292.54 53.5264C292.397 53.598 292.361 53.7233 292.433 53.9023C292.254 53.6159 292.003 53.4548 291.681 53.4189C291.394 53.3473 291.144 53.2041 290.929 52.9893C289.783 52.9176 288.78 52.7207 287.921 52.3984C287.062 52.0404 286.113 51.6465 285.074 51.2168C284.788 51.1094 284.501 51.0378 284.215 51.002C283.964 50.9303 283.714 50.8229 283.463 50.6797C282.818 50.3574 282.299 49.9277 281.905 49.3906C281.511 48.8535 281.207 48.2627 280.992 47.6182C280.742 46.9378 280.562 46.2396 280.455 45.5234C280.348 44.8073 280.24 44.1449 280.133 43.5361C280.455 42.9632 280.759 42.3724 281.046 41.7637C281.297 41.1549 281.511 40.5104 281.69 39.8301C281.905 39.7227 282.12 39.6331 282.335 39.5615C282.55 39.4899 282.783 39.4004 283.033 39.293C282.997 39.2214 282.979 39.1318 282.979 39.0244C282.979 38.8454 283.033 38.6663 283.141 38.4873C283.284 38.3083 283.32 38.1292 283.248 37.9502C284.036 37.234 284.788 36.5 285.504 35.748C286.256 34.9603 286.9 34.1009 287.438 33.1699C287.975 32.9909 288.404 32.7223 288.727 32.3643C289.049 32.0062 289.371 31.6481 289.693 31.29C290.016 30.8962 290.374 30.556 290.768 30.2695C291.161 29.9473 291.663 29.7503 292.271 29.6787C292.415 29.4281 292.612 29.2311 292.862 29.0879C293.113 28.9089 293.364 28.7477 293.614 28.6045C293.865 28.4613 294.098 28.3001 294.312 28.1211C294.527 27.9421 294.688 27.6914 294.796 27.3691C295.369 27.3691 295.888 27.2617 296.354 27.0469C296.855 26.832 297.338 26.5993 297.804 26.3486C298.269 26.098 298.735 25.8652 299.2 25.6504C299.701 25.4355 300.239 25.3281 300.812 25.3281C300.955 25.3281 301.098 25.346 301.241 25.3818C301.384 25.3818 301.546 25.3997 301.725 25.4355C301.975 25.6862 302.136 25.9906 302.208 26.3486C302.315 26.6709 302.387 27.029 302.423 27.4229C302.459 27.8167 302.477 28.2106 302.477 28.6045C302.512 28.9984 302.584 29.3564 302.691 29.6787C302.369 30.2874 302.011 30.8962 301.617 31.5049C301.259 32.1136 300.776 32.5791 300.167 32.9014H300.06C299.809 32.9372 299.576 32.8835 299.361 32.7402C299.146 32.597 298.896 32.5254 298.609 32.5254C298.43 32.5254 298.287 32.5791 298.18 32.6865L297.911 32.9551C297.84 33.0267 297.732 33.0983 297.589 33.1699C297.481 33.2415 297.32 33.2415 297.105 33.1699C296.604 33.349 296.407 33.6533 296.515 34.083C295.834 34.1546 295.261 34.3695 294.796 34.7275C294.33 35.0498 293.901 35.4258 293.507 35.8555C293.113 36.2493 292.719 36.6253 292.325 36.9834C291.931 37.3057 291.466 37.4847 290.929 37.5205C290.32 38.5947 289.568 39.5436 288.673 40.3672C287.813 41.1908 287.097 42.1217 286.524 43.1602C286.632 43.4466 286.703 43.751 286.739 44.0732C286.775 44.3955 286.829 44.7357 286.9 45.0938C287.223 45.5234 287.599 45.8994 288.028 46.2217C288.494 46.5439 288.941 46.8662 289.371 47.1885H289.532C290.248 47.1885 290.911 47.3317 291.52 47.6182C292.128 47.8688 292.773 47.9941 293.453 47.9941C293.811 47.9941 294.116 47.9225 294.366 47.7793C295.297 47.9941 296.21 48.1732 297.105 48.3164C298.036 48.4596 298.967 48.5671 299.898 48.6387C300.364 48.7103 300.829 48.7461 301.295 48.7461C301.796 48.7461 302.262 48.7998 302.691 48.9072C303.085 49.0146 303.479 49.1579 303.873 49.3369C304.267 49.4801 304.661 49.6413 305.055 49.8203C305.878 50.1784 306.648 50.5723 307.364 51.002C308.116 51.4316 308.779 51.9508 309.352 52.5596C309.924 53.1325 310.372 53.8128 310.694 54.6006C311.017 55.3525 311.178 56.2298 311.178 57.2324Z" fill="white"/>
        </svg>