<svg width="35" height="36" viewBox="0 0 35 36" fill="none" xmlns="http://www.w3.org/2000/svg">
<g clip-path="url(#clip0_57_4)">
<path d="M30.6247 9H19.5559L24.3538 4.065L23.333 3L17.4997 9L11.6663 3L10.6309 4.065L15.4434 9H4.37467C2.77051 9 1.45801 10.335 1.45801 12V30C1.45801 31.65 2.77051 33 4.37467 33H30.6247C32.2288 33 33.5413 31.65 33.5413 30V12C33.5413 10.335 32.2288 9 30.6247 9ZM30.6247 30H4.37467V12H30.6247V30ZM13.1247 15V27L23.333 21L13.1247 15Z" fill="#B11226"/>
</g>
<defs>
<clipPath id="clip0_57_4">
<rect width="35" height="36" fill="white"/>
</clipPath>
</defs>
</svg>
