<svg width="93" height="21" viewBox="0 0 93 21" fill="none" xmlns="http://www.w3.org/2000/svg">
<path d="M9.288 0.079999C9.864 0.079999 10.36 0.119999 10.776 0.199999C11.208 0.263999 11.608 0.359999 11.976 0.487999C11.976 0.759999 11.976 1.048 11.976 1.352C11.992 1.656 12 1.984 12 2.336C12 2.688 11.992 3.064 11.976 3.464C11.976 3.848 11.976 4.208 11.976 4.544C11.368 4.16 10.64 3.968 9.792 3.968C8.992 3.968 8.32 4.12 7.776 4.424C7.248 4.712 6.816 5.088 6.48 5.552C6.16 6.016 5.928 6.528 5.784 7.088C5.656 7.632 5.592 8.152 5.592 8.648C5.592 9.32 5.696 9.952 5.904 10.544C6.112 11.136 6.4 11.656 6.768 12.104C7.152 12.536 7.592 12.88 8.088 13.136C8.6 13.392 9.152 13.52 9.744 13.52C10.016 13.52 10.36 13.48 10.776 13.4C11.208 13.32 11.608 13.168 11.976 12.944C11.976 13.504 11.976 14.088 11.976 14.696C11.992 15.304 12 15.896 12 16.472C12 17.08 11.992 17.672 11.976 18.248C11.976 18.824 11.976 19.4 11.976 19.976C11.08 20.168 10.168 20.264 9.24 20.264C7.832 20.264 6.568 20.032 5.448 19.568C4.344 19.104 3.4 18.44 2.616 17.576C1.848 16.696 1.256 15.64 0.84 14.408C0.44 13.16 0.24 11.768 0.24 10.232C0.24 8.76 0.432 7.408 0.816 6.176C1.2 4.928 1.768 3.856 2.52 2.96C3.288 2.048 4.232 1.344 5.352 0.847999C6.488 0.335999 7.8 0.079999 9.288 0.079999ZM14.751 13.208V9.32C14.751 8.296 14.743 7.424 14.727 6.704C14.727 5.984 14.727 5.32 14.727 4.712H12.951C12.935 4.344 12.919 3.984 12.903 3.632C12.887 3.28 12.879 2.92 12.879 2.552C12.879 2.184 12.887 1.816 12.903 1.448C12.919 1.08 12.935 0.719999 12.951 0.368H20.343C20.359 0.736 20.367 1.104 20.367 1.472C20.367 1.824 20.367 2.184 20.367 2.552C20.367 2.92 20.367 3.28 20.367 3.632C20.367 3.984 20.359 4.344 20.343 4.712H18.591C18.559 5.784 18.535 6.84 18.519 7.88C18.519 8.92 18.519 10.08 18.519 11.36V13.208H20.343C20.359 13.784 20.367 14.352 20.367 14.912C20.367 15.472 20.367 16.04 20.367 16.616C20.367 17.176 20.367 17.744 20.367 18.32C20.367 18.88 20.359 19.44 20.343 20H12.951C12.935 19.44 12.919 18.88 12.903 18.32C12.887 17.744 12.879 17.176 12.879 16.616C12.879 16.04 12.887 15.472 12.903 14.912C12.919 14.352 12.935 13.784 12.951 13.208H14.751ZM31.1303 0.368H34.5623C34.5143 3.632 34.4903 6.904 34.4903 10.184C34.4903 13.464 34.5143 16.736 34.5623 20H29.9303L24.8423 8.264V20H21.5543C21.5863 18.352 21.6103 16.72 21.6263 15.104C21.6423 13.472 21.6503 11.832 21.6503 10.184C21.6503 8.536 21.6423 6.904 21.6263 5.288C21.6103 3.656 21.5863 2.016 21.5543 0.368H26.4023L31.1303 12.08V0.368ZM44.7786 20.072C44.3306 20.056 43.7386 20.04 43.0026 20.024C42.2666 20.024 41.4746 20.016 40.6266 20C39.7946 20 38.9546 20 38.1066 20C37.2746 20 36.5386 20 35.8986 20C35.9146 19.664 35.9226 19.216 35.9226 18.656C35.9386 18.096 35.9466 17.456 35.9466 16.736C35.9466 16.016 35.9466 15.24 35.9466 14.408C35.9466 13.56 35.9466 12.688 35.9466 11.792C35.9466 10.576 35.9386 9.36 35.9226 8.144C35.9226 6.928 35.9226 5.8 35.9226 4.76C35.9226 3.704 35.9146 2.792 35.8986 2.024C35.8986 1.256 35.8986 0.711999 35.8986 0.391999C36.5226 0.391999 37.2106 0.391999 37.9626 0.391999C38.7146 0.391999 39.4826 0.391999 40.2666 0.391999C41.0506 0.375999 41.8186 0.359999 42.5706 0.343998C43.3226 0.327999 44.0266 0.311999 44.6826 0.295999C44.6826 0.503999 44.6826 0.687999 44.6826 0.847999C44.6986 0.991999 44.7066 1.2 44.7066 1.472C44.7066 1.664 44.6986 1.896 44.6826 2.168C44.6826 2.424 44.6746 2.696 44.6586 2.984C44.6586 3.256 44.6506 3.536 44.6346 3.824C44.6346 4.096 44.6266 4.352 44.6106 4.592H39.7866V7.376H43.9866V10.952H39.7866V13.64H44.6826C44.6986 14.008 44.7146 14.384 44.7306 14.768C44.7466 15.152 44.7546 15.584 44.7546 16.064C44.7706 16.544 44.7786 17.112 44.7786 17.768C44.7786 18.408 44.7786 19.176 44.7786 20.072ZM54.9795 4.808H52.2195C52.1875 6.232 52.1635 7.68 52.1475 9.152C52.1315 10.608 52.1235 12.184 52.1235 13.88C52.1235 14.968 52.1235 15.848 52.1235 16.52C52.1235 17.176 52.1235 17.72 52.1235 18.152C52.1235 18.568 52.1235 18.912 52.1235 19.184C52.1395 19.44 52.1475 19.712 52.1475 20H48.1155C48.1315 19.296 48.1475 18.568 48.1635 17.816C48.1795 17.048 48.1875 16.224 48.1875 15.344C48.2035 14.448 48.2115 13.488 48.2115 12.464C48.2275 11.424 48.2355 10.28 48.2355 9.032C48.2355 8.12 48.2355 7.328 48.2355 6.656C48.2355 5.984 48.2275 5.368 48.2115 4.808H45.4515V0.368H54.9795V4.808ZM55.8902 20C55.9382 18.48 55.9702 16.968 55.9862 15.464C56.0022 13.944 56.0102 12.504 56.0102 11.144C56.0102 9.208 55.9942 7.368 55.9622 5.624C55.9462 3.88 55.9222 2.128 55.8902 0.368C56.6742 0.288 57.4582 0.224 58.2422 0.175999C59.0422 0.111999 59.8502 0.079999 60.6662 0.079999C61.8342 0.079999 62.9302 0.167999 63.9542 0.343998C64.9782 0.503999 65.8662 0.816 66.6182 1.28C67.3702 1.728 67.9622 2.352 68.3942 3.152C68.8422 3.952 69.0662 4.984 69.0662 6.248C69.0662 7.816 68.7382 9.048 68.0822 9.944C67.4422 10.84 66.5702 11.512 65.4662 11.96L69.3782 20H65.1062L61.9142 12.68C61.2582 12.728 60.5782 12.752 59.8742 12.752C59.8742 13.984 59.8822 15.192 59.8982 16.376C59.9142 17.56 59.9622 18.768 60.0422 20H55.8902ZM59.8742 9.104C60.3702 9.152 60.8262 9.176 61.2422 9.176C62.3302 9.176 63.0982 8.976 63.5462 8.576C64.0102 8.16 64.2422 7.544 64.2422 6.728C64.2422 6.232 64.1702 5.832 64.0262 5.528C63.8982 5.224 63.7142 4.984 63.4742 4.808C63.2502 4.632 62.9782 4.512 62.6582 4.448C62.3542 4.384 62.0262 4.352 61.6742 4.352C61.4182 4.352 61.1302 4.368 60.8102 4.4C60.5062 4.416 60.1942 4.448 59.8742 4.496V9.104ZM78.927 20.072C78.479 20.056 77.887 20.04 77.151 20.024C76.415 20.024 75.623 20.016 74.775 20C73.943 20 73.103 20 72.255 20C71.423 20 70.687 20 70.047 20C70.063 19.664 70.071 19.216 70.071 18.656C70.087 18.096 70.095 17.456 70.095 16.736C70.095 16.016 70.095 15.24 70.095 14.408C70.095 13.56 70.095 12.688 70.095 11.792C70.095 10.576 70.087 9.36 70.071 8.144C70.071 6.928 70.071 5.8 70.071 4.76C70.071 3.704 70.063 2.792 70.047 2.024C70.047 1.256 70.047 0.711999 70.047 0.391999C70.671 0.391999 71.359 0.391999 72.111 0.391999C72.863 0.391999 73.631 0.391999 74.415 0.391999C75.199 0.375999 75.967 0.359999 76.719 0.343998C77.471 0.327999 78.175 0.311999 78.831 0.295999C78.831 0.503999 78.831 0.687999 78.831 0.847999C78.847 0.991999 78.855 1.2 78.855 1.472C78.855 1.664 78.847 1.896 78.831 2.168C78.831 2.424 78.823 2.696 78.807 2.984C78.807 3.256 78.799 3.536 78.783 3.824C78.783 4.096 78.775 4.352 78.759 4.592H73.935V7.376H78.135V10.952H73.935V13.64H78.831C78.847 14.008 78.863 14.384 78.879 14.768C78.895 15.152 78.903 15.584 78.903 16.064C78.919 16.544 78.927 17.112 78.927 17.768C78.927 18.408 78.927 19.176 78.927 20.072ZM88.1199 0.368H92.3679L88.5279 9.632L92.4159 19.976H88.2159L85.6959 12.176L83.1999 19.976H78.9759L82.8639 9.632L79.0239 0.368H83.2719L85.6959 7.256L88.1199 0.368Z" fill="white"/>
</svg>
