<svg width="35" height="35" viewBox="0 0 35 35" fill="none" xmlns="http://www.w3.org/2000/svg">
<g clip-path="url(#clip0_59_27)">
<path d="M14.5837 24.0625L23.3337 17.5L14.5837 10.9375V24.0625ZM17.5003 2.91666C9.45033 2.91666 2.91699 9.44999 2.91699 17.5C2.91699 25.55 9.45033 32.0833 17.5003 32.0833C25.5503 32.0833 32.0837 25.55 32.0837 17.5C32.0837 9.44999 25.5503 2.91666 17.5003 2.91666ZM17.5003 29.1667C11.0691 29.1667 5.83366 23.9312 5.83366 17.5C5.83366 11.0687 11.0691 5.83332 17.5003 5.83332C23.9316 5.83332 29.167 11.0687 29.167 17.5C29.167 23.9312 23.9316 29.1667 17.5003 29.1667Z" fill="#B11226"/>
</g>
<defs>
<clipPath id="clip0_59_27">
<rect width="35" height="35" fill="white"/>
</clipPath>
</defs>
</svg>
